<svg id="Layer_1" data-name="Layer 1" xmlns="http://www.w3.org/2000/svg" xmlns:xlink="http://www.w3.org/1999/xlink" viewBox="0 0 993 339.38"><defs><style>.cls-1{fill:url(#linear-gradient);}.cls-2{fill:url(#linear-gradient-2);}.cls-3,.cls-4,.cls-5{isolation:isolate;}.cls-4,.cls-5{font-size:170px;fill:none;font-family:Rubik-Medium, Rubik;font-weight:500;}.cls-5{letter-spacing:0.02em;}.cls-6{fill:url(#linear-gradient-3);}.cls-7{fill:url(#linear-gradient-4);}.cls-8{fill:url(#linear-gradient-5);}.cls-9{fill:url(#linear-gradient-6);}.cls-10{fill:url(#linear-gradient-7);}.cls-11{fill:url(#linear-gradient-8);}.cls-12{fill:url(#linear-gradient-9);}.cls-13{fill:url(#linear-gradient-10);}.cls-14{fill:url(#linear-gradient-11);}.cls-15{fill:url(#linear-gradient-12);}.cls-16{fill:url(#linear-gradient-13);}.cls-17{fill:url(#linear-gradient-14);}</style><linearGradient id="linear-gradient" x1="124.76" y1="261.54" x2="124.76" y2="12.02" gradientTransform="matrix(1, 0, 0, -1, 0, 342)" gradientUnits="userSpaceOnUse"><stop offset="0.39" stop-color="#3676f5"/><stop offset="0.8" stop-color="#263ea6"/></linearGradient><linearGradient id="linear-gradient-2" x1="124.55" y1="82.34" x2="124.55" y2="331.44" gradientTransform="matrix(1, 0, 0, -1, 0, 342)" gradientUnits="userSpaceOnUse"><stop offset="0.35" stop-color="#f1bf10"/><stop offset="0.59" stop-color="#e69916"/><stop offset="0.86" stop-color="#db761b"/></linearGradient><linearGradient id="linear-gradient-3" x1="364.72" y1="176.24" x2="1028.74" y2="176.24" gradientTransform="matrix(1, 0, 0, -1, -42.54, 261.26)" gradientUnits="userSpaceOnUse"><stop offset="0" stop-color="#ff7300"/><stop offset="0.18" stop-color="#f97c01"/><stop offset="0.47" stop-color="#ea9602"/><stop offset="0.55" stop-color="#e59e03"/><stop offset="0.87" stop-color="#e5c500"/><stop offset="0.99" stop-color="#bf6f00"/></linearGradient><linearGradient id="linear-gradient-4" x1="364.72" y1="176.26" x2="1028.74" y2="176.26" xlink:href="#linear-gradient-3"/><linearGradient id="linear-gradient-5" x1="364.72" y1="176.28" x2="1028.74" y2="176.28" xlink:href="#linear-gradient-3"/><linearGradient id="linear-gradient-6" x1="364.72" y1="160.96" x2="1028.74" y2="160.96" xlink:href="#linear-gradient-3"/><linearGradient id="linear-gradient-7" x1="364.72" y1="176.26" x2="1028.74" y2="176.26" xlink:href="#linear-gradient-3"/><linearGradient id="linear-gradient-8" x1="364.72" y1="160.95" x2="1028.74" y2="160.95" xlink:href="#linear-gradient-3"/><linearGradient id="linear-gradient-9" x1="454.64" y1="26.24" x2="978.75" y2="26.24" gradientTransform="matrix(1, 0, 0, -1, -42.54, 261.26)" gradientUnits="userSpaceOnUse"><stop offset="0" stop-color="#3680f5"/><stop offset="1" stop-color="#265ea6"/></linearGradient><linearGradient id="linear-gradient-10" x1="454.64" y1="27.11" x2="978.75" y2="27.11" xlink:href="#linear-gradient-9"/><linearGradient id="linear-gradient-11" x1="454.64" y1="10.11" x2="978.75" y2="10.11" xlink:href="#linear-gradient-9"/><linearGradient id="linear-gradient-12" x1="454.64" y1="26.26" x2="978.75" y2="26.26" xlink:href="#linear-gradient-9"/><linearGradient id="linear-gradient-13" x1="454.64" y1="28.47" x2="978.75" y2="28.47" xlink:href="#linear-gradient-9"/><linearGradient id="linear-gradient-14" x1="454.64" y1="10.96" x2="978.75" y2="10.96" xlink:href="#linear-gradient-9"/></defs><polygon class="cls-1" points="0 204.25 123.71 332.89 249.52 201.94 138.16 90.27 138.16 139.32 200.75 201.24 154.83 247.44 154.83 161.06 123.71 194.41 123.71 279.14 0 154.11 0 204.25"/><polygon class="cls-2" points="123.71 6.49 0 133.43 108.34 243.28 108.34 192.87 89.14 173.95 123.71 140.35 123.71 91.77 65.44 150.54 48.05 133.15 123.71 56.33 249.1 179.88 249.1 130.75 123.71 6.49"/><g class="cls-3"><text class="cls-4" transform="translate(308.93 144.5)">FD</text><text class="cls-5" transform="translate(530.61 144.5)"> </text><text class="cls-4" transform="translate(573.79 144.5)">Code</text></g><path class="cls-6" d="M326.26,144.5a4.08,4.08,0,0,1-4.08-4.08V29.75a4.12,4.12,0,0,1,1.2-3.06,3.92,3.92,0,0,1,2.88-1.19H400a4.19,4.19,0,0,1,3.07,1.19,4.14,4.14,0,0,1,1.18,3.06v11.9a3.85,3.85,0,0,1-1.18,3A4.33,4.33,0,0,1,400,45.76H345.46v32.3h51.18a4.08,4.08,0,0,1,4.25,3.9V94.21a4,4,0,0,1-1.19,2.89,4.17,4.17,0,0,1-3.06,1.19H345.46v42.16a4,4,0,0,1-1.18,2.89,4.19,4.19,0,0,1-3.07,1.19Z" transform="translate(0 0)"/><path class="cls-7" d="M428.46,144.5a4.06,4.06,0,0,1-4.08-4V29.75a4.15,4.15,0,0,1,1.19-3.06,4,4,0,0,1,2.89-1.19h41.48q17.18,0,28.31,5.27a36.45,36.45,0,0,1,16.83,15.64q5.7,10.37,5.86,25.33.34,7.49.34,13.26t-.34,13.09q-.33,15.81-5.78,26.09a33.92,33.92,0,0,1-16.4,15.3q-11,5-28,5ZM448,125h21.93q9.53,0,15.47-2.72a17.32,17.32,0,0,0,8.76-8.76q2.81-6,3-15.89c.12-3.4.2-6.38.26-8.93s.05-5.1,0-7.65-.14-5.46-.26-8.75q-.33-13.94-7-20.57t-21.08-6.63H448Z" transform="translate(0 0)"/><path class="cls-8" d="M632.94,146.2q-15.81,0-26.77-5.53a38.55,38.55,0,0,1-16.71-15.81q-5.78-10.27-6.46-24.73-.16-7-.17-15t.17-15.3q.68-14.28,6.55-24.65a39.09,39.09,0,0,1,16.83-15.9q11-5.52,26.6-5.52a65.41,65.41,0,0,1,20.74,3.06,48,48,0,0,1,15.6,8.44,38.53,38.53,0,0,1,10,12.5,35.7,35.7,0,0,1,3.77,15.5,2.86,2.86,0,0,1-.93,2.55,3.79,3.79,0,0,1-2.64,1H663.37a4.73,4.73,0,0,1-3.06-.94,5.34,5.34,0,0,1-1.7-3.14q-2.72-11.22-9.35-15.3t-16.49-4.08q-11.38,0-18.19,6.37t-7.31,21q-.51,13.94,0,28.56t7.31,21q6.79,6.38,18.19,6.38,9.86,0,16.58-4.17t9.26-15.23a4.31,4.31,0,0,1,4.51-4.1l.25,0h16.15a3.79,3.79,0,0,1,2.64,1,2.86,2.86,0,0,1,.93,2.55,35.8,35.8,0,0,1-3.74,15.53,38.5,38.5,0,0,1-10,12.49,47.9,47.9,0,0,1-15.64,8.42A65.33,65.33,0,0,1,632.94,146.2Z" transform="translate(0 0)"/><path class="cls-9" d="M740.38,146.2q-13.61,0-22.87-4.76A33,33,0,0,1,703.4,128a46.34,46.34,0,0,1-5.52-20.23c-.12-2-.17-4.53-.17-7.48s0-5.44.17-7.48a45,45,0,0,1,5.69-20.32,34.28,34.28,0,0,1,14.28-13.34q9.27-4.75,22.53-4.76t22.52,4.76A34.16,34.16,0,0,1,777.18,72.5a44.87,44.87,0,0,1,5.7,20.32q.17,3.06.17,7.48t-.17,7.48A46.52,46.52,0,0,1,777.35,128a33,33,0,0,1-14.11,13.43Q754,146.2,740.38,146.2Zm0-16.83q9,0,13.94-5.7t5.44-16.74c.11-1.7.16-3.91.17-6.63s0-4.93-.17-6.63q-.51-11.06-5.44-16.75t-13.94-5.66q-9,0-13.94,5.69T721,93.7c-.12,1.7-.17,3.91-.17,6.63s0,4.93.17,6.63q.51,11.06,5.44,16.74T740.38,129.37Z" transform="translate(0 0)"/><path class="cls-10" d="M834.73,146.2a38.12,38.12,0,0,1-15.56-3A29.35,29.35,0,0,1,808,134.79a39,39,0,0,1-6.8-12.84,60,60,0,0,1-2.72-16.23c-.12-2-.17-3.88-.17-5.53s0-3.48.17-5.52a60.2,60.2,0,0,1,2.63-15.81A38.53,38.53,0,0,1,808,66a30.69,30.69,0,0,1,11.22-8.58,37.15,37.15,0,0,1,15.56-3.06,35,35,0,0,1,15.55,3.14,33.39,33.39,0,0,1,10.63,8.08V27.88A4.07,4.07,0,0,1,862,25a3.88,3.88,0,0,1,3-1.19h14.45a4.06,4.06,0,0,1,4.08,4V140.42a4.06,4.06,0,0,1-4,4.08H866a3.88,3.88,0,0,1-3-1.19,4.07,4.07,0,0,1-1.1-2.89v-6.29a33.64,33.64,0,0,1-10.8,8.67Q844.59,146.19,834.73,146.2ZM841,128q7.14,0,11.39-3.23a19.26,19.26,0,0,0,6.29-8.25,29.72,29.72,0,0,0,2.21-10.27c.11-2,.16-4.22.17-6.55s-.05-4.51-.17-6.54a24.9,24.9,0,0,0-2.38-9.78,19.94,19.94,0,0,0-6.46-7.73Q847.81,72.6,841,72.6q-7.14,0-11.31,3.14a17.68,17.68,0,0,0-6,8.25,38.33,38.33,0,0,0-2.25,11.21q-.18,5.1,0,10.2a38.4,38.4,0,0,0,2.21,11.22,17.59,17.59,0,0,0,6,8.24Q833.89,128,841,128Z" transform="translate(0 0)"/><path class="cls-11" d="M944.21,146.2q-18.87,0-29.92-10.88t-11.9-30.94a41.87,41.87,0,0,1-.17-4.34,38.48,38.48,0,0,1,.17-4.16q.68-12.91,5.86-22.19a36,36,0,0,1,14.37-14.28q9.18-5,21.59-5,13.77,0,23.12,5.69a36.22,36.22,0,0,1,14.13,15.8,54.42,54.42,0,0,1,4.76,23.38v3.57a4,4,0,0,1-1.19,2.89,4.15,4.15,0,0,1-3.06,1.19H925.51v1.33a29.9,29.9,0,0,0,2.29,11,19,19,0,0,0,6.29,8.08,16.35,16.35,0,0,0,10,3.06,18.93,18.93,0,0,0,13.26-4.76,22,22,0,0,0,2.89-3.06,8.16,8.16,0,0,1,2.46-2.47,7.07,7.07,0,0,1,2.81-.42h14.62a4,4,0,0,1,2.8,1,2.86,2.86,0,0,1,.94,2.55c-.12,1.81-1,4-2.81,6.63a33.27,33.27,0,0,1-7.56,7.65,42.66,42.66,0,0,1-12.33,6.2A53.57,53.57,0,0,1,944.21,146.2Zm-18.7-53.55h37.57v-.51a28.76,28.76,0,0,0-2.21-11.65,17.67,17.67,0,0,0-6.46-7.82,20,20,0,0,0-20.4,0,17.08,17.08,0,0,0-6.38,7.82,29.75,29.75,0,0,0-2.12,11.65Z" transform="translate(0 0)"/><g class="cls-3"><text class="cls-4" transform="translate(309.71 294.5)">Stud</text><text class="cls-4" transform="translate(701.56 294.5)">i</text><text class="cls-4" transform="translate(746.95 294.5)">o</text></g><path class="cls-12" d="M364.28,296.2q-15.81,0-26.43-4.68T321.7,279.26a28.51,28.51,0,0,1-5.87-15.89,3.49,3.49,0,0,1,3.41-3.57h15.29a5,5,0,0,1,3.32.93,10,10,0,0,1,1.95,2.3,17.07,17.07,0,0,0,3.91,6.37,21.44,21.44,0,0,0,7.91,5.19,33.68,33.68,0,0,0,12.66,2q12.24,0,18.28-4.08a12.7,12.7,0,0,0,6-11.05,10.26,10.26,0,0,0-3.23-7.91q-3.22-3-9.94-5.44a174.42,174.42,0,0,0-17.77-5.18,98.72,98.72,0,0,1-21.33-7.4,32.33,32.33,0,0,1-12.92-11Q319,217.9,319,207.7a29.8,29.8,0,0,1,5.43-17.44,36,36,0,0,1,15.26-12q9.94-4.42,23.71-4.42a59.25,59.25,0,0,1,19.55,3,43.26,43.26,0,0,1,14.11,7.82A37.3,37.3,0,0,1,405.68,195a24.42,24.42,0,0,1,3.14,10.8,3.71,3.71,0,0,1-.93,2.46,3.31,3.31,0,0,1-2.64,1.11H389.46a6,6,0,0,1-2.72-.68,5,5,0,0,1-2.21-2.55q-1-5.26-6.63-9t-14.44-3.82q-9.18,0-14.79,3.4T343,207.26a11.44,11.44,0,0,0,2.81,7.9q2.81,3.15,9,5.53a168.12,168.12,0,0,0,16.4,5.1,118.75,118.75,0,0,1,23.64,7.47q9.18,4.25,13.43,10.79t4.25,16.58q0,11.22-6,19.12t-16.92,12.16Q378.74,296.18,364.28,296.2Z" transform="translate(0 0)"/><path class="cls-13" d="M470,294.5q-10.2,0-17.17-3.57a22.73,22.73,0,0,1-10.39-10.67q-3.4-7-3.4-17.59V224.12H425.65a4,4,0,0,1-2.89-1.19,4.15,4.15,0,0,1-1.19-3.06v-9.69a4.06,4.06,0,0,1,4-4.08h13.47V177.88a4.08,4.08,0,0,1,1.11-2.89,3.84,3.84,0,0,1,3-1.19H457a4.06,4.06,0,0,1,4.08,4V206.1h21.22a4.06,4.06,0,0,1,4.08,4v9.73a4.15,4.15,0,0,1-1.19,3.06,4,4,0,0,1-2.89,1.19H461V261q0,7,2.47,10.88t8.58,3.91h11.73a4.06,4.06,0,0,1,4.08,4v10.58a4.06,4.06,0,0,1-4,4.08H470Z" transform="translate(0 0)"/><path class="cls-14" d="M535.81,296.2a33.46,33.46,0,0,1-17.94-4.68,30.54,30.54,0,0,1-11.64-13.26q-4.08-8.58-4.08-20.31V210.18a4.06,4.06,0,0,1,4-4.08h15a3.88,3.88,0,0,1,3,1.19,4.08,4.08,0,0,1,1.11,2.89v46.75q0,21.07,18.53,21.08,8.83,0,14-5.61t5.19-15.47V210.18a4.06,4.06,0,0,1,4-4.08h15a4.06,4.06,0,0,1,4.08,4v80.28a4.06,4.06,0,0,1-4,4.08h-13.9a3.88,3.88,0,0,1-3-1.19,4.07,4.07,0,0,1-1.1-2.89v-7a32.67,32.67,0,0,1-11.39,9.35Q546,296.19,535.81,296.2Z" transform="translate(0 0)"/><path class="cls-15" d="M641.38,296.2a38.12,38.12,0,0,1-15.56-3,29.35,29.35,0,0,1-11.13-8.41,39,39,0,0,1-6.8-12.84,60,60,0,0,1-2.72-16.23c-.12-2-.17-3.88-.17-5.53s0-3.48.17-5.52a60.2,60.2,0,0,1,2.63-15.81A38.53,38.53,0,0,1,614.6,216a30.58,30.58,0,0,1,11.22-8.58,37.15,37.15,0,0,1,15.56-3.06,35,35,0,0,1,15.55,3.14,33.39,33.39,0,0,1,10.63,8.08V177.88a4.07,4.07,0,0,1,1.1-2.89,3.88,3.88,0,0,1,3-1.19h14.45a4.06,4.06,0,0,1,4.08,4V290.42a4.06,4.06,0,0,1-4,4.08H672.66a3.88,3.88,0,0,1-3-1.19,4.07,4.07,0,0,1-1.1-2.89v-6.29a33.64,33.64,0,0,1-10.8,8.67Q651.23,296.19,641.38,296.2ZM647.67,278q7.14,0,11.39-3.23a19.26,19.26,0,0,0,6.29-8.25,29.72,29.72,0,0,0,2.21-10.27q.16-3.06.17-6.55t-.17-6.54a24.9,24.9,0,0,0-2.38-9.78,19.94,19.94,0,0,0-6.46-7.73q-4.26-3.06-11-3.06-7.14,0-11.31,3.14a17.68,17.68,0,0,0-6,8.25,38.4,38.4,0,0,0-2.21,11.22q-.18,5.1,0,10.2a38.4,38.4,0,0,0,2.21,11.22,17.59,17.59,0,0,0,6,8.24q4.13,3.13,11.26,3.14Z" transform="translate(0 0)"/><path class="cls-16" d="M716.17,191.48a4.06,4.06,0,0,1-4.08-4V175.16a4.06,4.06,0,0,1,4-4.08h15.51a4.15,4.15,0,0,1,3.06,1.19,3.92,3.92,0,0,1,1.19,2.89V187.4a3.92,3.92,0,0,1-1.19,2.89,4.15,4.15,0,0,1-3.06,1.19Zm.68,103a4.06,4.06,0,0,1-4.08-4V210.18a4.06,4.06,0,0,1,4-4.08H731a3.88,3.88,0,0,1,3,1.19,4.11,4.11,0,0,1,1.1,2.89v80.24a4.11,4.11,0,0,1-1.1,2.89,3.88,3.88,0,0,1-3,1.19Z" transform="translate(0 0)"/><path class="cls-17" d="M797.26,296.2q-13.6,0-22.86-4.76A33,33,0,0,1,760.29,278a46.48,46.48,0,0,1-5.53-20.23c-.11-2-.16-4.53-.17-7.48s0-5.44.17-7.48a44.75,44.75,0,0,1,5.7-20.32,34.16,34.16,0,0,1,14.28-13.34q9.25-4.75,22.52-4.76t22.53,4.76a34.34,34.34,0,0,1,14.28,13.34,45,45,0,0,1,5.69,20.32c.11,2,.16,4.53.17,7.48s0,5.44-.17,7.48A46.34,46.34,0,0,1,834.24,278a33,33,0,0,1-14.11,13.43Q810.86,296.2,797.26,296.2Zm0-16.83q9,0,13.94-5.7t5.44-16.74q.17-2.55.17-6.63t-.17-6.63q-.51-11.05-5.44-16.75t-13.94-5.66q-9,0-13.94,5.69t-5.44,16.75q-.17,2.55-.17,6.63t.17,6.63q.51,11.06,5.44,16.74t13.94,5.67Z" transform="translate(0 0)"/></svg>